<?xml version="1.0" encoding="iso-8859-1"?>
<!-- Generator: Adobe Illustrator 19.0.0, SVG Export Plug-In . SVG Version: 6.00 Build 0)  -->
<svg version="1.1" id="Layer_1" xmlns="http://www.w3.org/2000/svg" xmlns:xlink="http://www.w3.org/1999/xlink" x="0px" y="0px"
	 viewBox="0 0 465.66 465.66" style="enable-background:new 0 0 465.66 465.66;" xml:space="preserve">
<g>
	<g>
		<g>
			<path fill="#ffffff" d="M232.83,0.001C104.447,0.001,0,104.446,0,232.829s104.447,232.83,232.83,232.83s232.83-104.447,232.83-232.83
				S361.212,0.001,232.83,0.001z M225.33,83.016h-75.516v15h75.516v352.5c-79.967-2.721-149.128-48.743-184.724-115.311h132.927v-15
				H33.314C21.548,293.443,15,263.889,15,232.829c0-24.323,4.009-47.726,11.398-69.586h105.627v-15h-99.93
				C64.258,72.204,138.418,18.1,225.33,15.144V83.016z M240.33,145.78c44.681,3.817,79.875,41.398,79.875,87.05
				c0,45.653-35.195,83.234-79.875,87.051V145.78z M240.33,334.929c52.962-3.854,94.875-48.172,94.875-102.1
				c0-53.928-41.914-98.246-94.875-102.099V74.48c83.946,3.93,151.032,73.449,151.032,158.35S324.276,387.25,240.33,391.18V334.929z
				 M240.33,450.516v-44.327c92.219-3.942,166.032-80.188,166.032-173.36S332.549,63.412,240.33,59.469V15.144
				c116.651,3.969,210.33,100.086,210.33,217.686C450.659,350.43,356.981,446.547,240.33,450.516z"/>
			<rect fill="#ffffff" x="72.727" y="207.54" width="47.438" height="15"/>
			<rect fill="#ffffff" x="155.743" y="148.243" width="35.579" height="15"/>
			<rect fill="#ffffff" x="161.673" y="385.432" width="35.579" height="15"/>
			<rect fill="#ffffff" x="137.954" y="260.908" width="53.368" height="15"/>
		</g>
	</g>
</g>
<g>
</g>
<g>
</g>
<g>
</g>
<g>
</g>
<g>
</g>
<g>
</g>
<g>
</g>
<g>
</g>
<g>
</g>
<g>
</g>
<g>
</g>
<g>
</g>
<g>
</g>
<g>
</g>
<g>
</g>
</svg>
